<svg xmlns="http://www.w3.org/2000/svg" viewBox="0 0 40 40"><rect width="40" height="40" fill="#05070a"/><rect x="15" y="3" width="2" height="2" fill="#22d3ee" opacity="0.64"/><rect x="18" y="3" width="2" height="2" fill="#22d3ee" opacity="0.76"/><rect x="21" y="3" width="2" height="2" fill="#22d3ee" opacity="0.78"/><rect x="24" y="3" width="2" height="2" fill="#22d3ee" opacity="0.69"/><rect x="9" y="6" width="2" height="2" fill="#22d3ee" opacity="0.62"/><rect x="12" y="6" width="2" height="2" fill="#22d3ee" opacity="0.91"/><rect x="15" y="6" width="2" height="2" fill="#22d3ee" opacity="0.83"/><rect x="18" y="6" width="2" height="2" fill="#22d3ee" opacity="0.68"/><rect x="21" y="6" width="2" height="2" fill="#22d3ee" opacity="0.66"/><rect x="24" y="6" width="2" height="2" fill="#22d3ee" opacity="0.77"/><rect x="27" y="6" width="2" height="2" fill="#22d3ee" opacity="0.93"/><rect x="30" y="6" width="2" height="2" fill="#22d3ee" opacity="0.74"/><rect x="6" y="9" width="2" height="2" fill="#22d3ee" opacity="0.62"/><rect x="9" y="9" width="2" height="2" fill="#22d3ee" opacity="0.92"/><rect x="30" y="9" width="2" height="2" fill="#22d3ee" opacity="0.83"/><rect x="33" y="9" width="2" height="2" fill="#22d3ee" opacity="0.78"/><rect x="6" y="12" width="2" height="2" fill="#22d3ee" opacity="0.91"/><rect x="33" y="12" width="2" height="2" fill="#22d3ee" opacity="0.91"/><rect x="3" y="15" width="2" height="2" fill="#22d3ee" opacity="0.64"/><rect x="6" y="15" width="2" height="2" fill="#22d3ee" opacity="0.83"/><rect x="15" y="15" width="2" height="2" fill="#22d3ee" opacity="0.69"/><rect x="18" y="15" width="2" height="2" fill="#22d3ee" opacity="0.87"/><rect x="21" y="15" width="2" height="2" fill="#22d3ee" opacity="0.84"/><rect x="24" y="15" width="2" height="2" fill="#22d3ee" opacity="0.84"/><rect x="33" y="15" width="2" height="2" fill="#22d3ee" opacity="0.64"/><rect x="36" y="15" width="2" height="2" fill="#22d3ee" opacity="0.82"/><rect x="3" y="18" width="2" height="2" fill="#22d3ee" opacity="0.76"/><rect x="6" y="18" width="2" height="2" fill="#22d3ee" opacity="0.68"/><rect x="15" y="18" width="2" height="2" fill="#22d3ee" opacity="0.87"/><rect x="24" y="18" width="2" height="2" fill="#22d3ee" opacity="0.74"/><rect x="27" y="18" width="2" height="2" fill="#22d3ee" opacity="0.65"/><rect x="36" y="18" width="2" height="2" fill="#22d3ee" opacity="0.91"/><rect x="3" y="21" width="2" height="2" fill="#22d3ee" opacity="0.78"/><rect x="6" y="21" width="2" height="2" fill="#22d3ee" opacity="0.66"/><rect x="15" y="21" width="2" height="2" fill="#22d3ee" opacity="0.84"/><rect x="24" y="21" width="2" height="2" fill="#22d3ee" opacity="0.68"/><rect x="27" y="21" width="2" height="2" fill="#22d3ee" opacity="0.69"/><rect x="36" y="21" width="2" height="2" fill="#22d3ee" opacity="0.91"/><rect x="3" y="24" width="2" height="2" fill="#22d3ee" opacity="0.69"/><rect x="6" y="24" width="2" height="2" fill="#22d3ee" opacity="0.77"/><rect x="15" y="24" width="2" height="2" fill="#22d3ee" opacity="0.84"/><rect x="18" y="24" width="2" height="2" fill="#22d3ee" opacity="0.74"/><rect x="21" y="24" width="2" height="2" fill="#22d3ee" opacity="0.68"/><rect x="24" y="24" width="2" height="2" fill="#22d3ee" opacity="0.88"/><rect x="36" y="24" width="2" height="2" fill="#22d3ee" opacity="0.86"/><rect x="6" y="27" width="2" height="2" fill="#22d3ee" opacity="0.93"/><rect x="18" y="27" width="2" height="2" fill="#22d3ee" opacity="0.65"/><rect x="21" y="27" width="2" height="2" fill="#22d3ee" opacity="0.69"/><rect x="33" y="27" width="2" height="2" fill="#22d3ee" opacity="0.81"/><rect x="36" y="27" width="2" height="2" fill="#22d3ee" opacity="0.69"/><rect x="6" y="30" width="2" height="2" fill="#22d3ee" opacity="0.74"/><rect x="9" y="30" width="2" height="2" fill="#22d3ee" opacity="0.83"/><rect x="30" y="30" width="2" height="2" fill="#22d3ee" opacity="0.68"/><rect x="33" y="30" width="2" height="2" fill="#22d3ee" opacity="0.88"/><rect x="9" y="33" width="2" height="2" fill="#22d3ee" opacity="0.78"/><rect x="12" y="33" width="2" height="2" fill="#22d3ee" opacity="0.91"/><rect x="15" y="33" width="2" height="2" fill="#22d3ee" opacity="0.64"/><rect x="27" y="33" width="2" height="2" fill="#22d3ee" opacity="0.81"/><rect x="30" y="33" width="2" height="2" fill="#22d3ee" opacity="0.88"/><rect x="15" y="36" width="2" height="2" fill="#22d3ee" opacity="0.82"/><rect x="18" y="36" width="2" height="2" fill="#22d3ee" opacity="0.91"/><rect x="21" y="36" width="2" height="2" fill="#22d3ee" opacity="0.91"/><rect x="24" y="36" width="2" height="2" fill="#22d3ee" opacity="0.86"/><rect x="27" y="36" width="2" height="2" fill="#22d3ee" opacity="0.69"/></svg>
